<svg width="132" height="71" viewBox="0 0 132 71" fill="none" xmlns="http://www.w3.org/2000/svg">
<path d="M31.6422 5.72834C28.0759 8.33222 23.7862 11.3138 23.7862 16.4099C23.7862 16.9346 25 20 23.8607 20.481C22.5 22 22.5 22 20.9193 24.3908C19.5 26 17.9064 26.5584 16.4142 27.6558C13.9692 29.4537 11.7717 31.6065 9.22835 33.2585C5.0981 35.9414 1 42.0367 1 47.2453C1 54.1383 6.90225 60.8845 12.058 64.2955C21.2214 70.3579 31.9669 70.5636 42.4024 69.5154C50.737 68.6782 59.3006 67.8643 67.1991 64.6986C73.5402 62.1571 79.186 58.5798 84.419 53.9767C88.0627 50.7717 91.6581 47.484 95.3467 44.3432C98.2711 41.8531 100.893 41.8038 104.469 41.8038C110.409 41.8038 115.228 46.3781 121.298 45.7136C127.48 45.0369 131.888 38.0148 130.848 31.485C129.484 22.922 124.408 14.6984 118.803 8.63049C115.968 5.56162 111.691 2.05433 107.633 1.33479C103.225 0.553076 98.0597 1.24358 93.7457 2.34248C88.3289 3.72232 83.516 6.95778 78.2385 8.77157C73.4737 10.4091 69.0847 11.6939 64.0716 11.6939C56.6801 11.6939 50.8732 7.82885 44.748 3.71295C40.1831 0.645551 35.7926 2.69805 31.6422 5.72834Z" fill="#F3970D" stroke="black" stroke-linecap="round"/>
</svg>
